<svg width="15" height="16" viewBox="0 0 15 16" fill="none" xmlns="http://www.w3.org/2000/svg">
<g opacity="0.7">
<path d="M13.0248 3.38044C12.7056 3.06107 12.3266 2.80772 11.9094 2.63487C11.4923 2.46201 11.0451 2.37305 10.5936 2.37305C10.142 2.37305 9.6949 2.46201 9.27773 2.63487C8.86057 2.80772 8.48155 3.06107 8.16233 3.38044L7.49983 4.04294L6.83733 3.38044C6.19252 2.73563 5.31798 2.37338 4.40608 2.37338C3.49418 2.37338 2.61964 2.73563 1.97483 3.38044C1.33002 4.02525 0.967773 4.89979 0.967773 5.81169C0.967773 6.72358 1.33002 7.59813 1.97483 8.24294L2.63733 8.90544L7.49983 13.7679L12.3623 8.90544L13.0248 8.24294C13.3442 7.92372 13.5976 7.5447 13.7704 7.12753C13.9433 6.71037 14.0322 6.26324 14.0322 5.81169C14.0322 5.36013 13.9433 4.913 13.7704 4.49584C13.5976 4.07868 13.3442 3.69966 13.0248 3.38044Z" stroke="white" stroke-width="1.5" stroke-linecap="round" stroke-linejoin="round"/>
</g>
</svg>
