<svg width="6" height="242" viewBox="0 0 6 242" fill="none" xmlns="http://www.w3.org/2000/svg">
<path d="M3 0.333333C1.52724 0.333333 0.333333 1.52724 0.333333 3C0.333333 4.47276 1.52724 5.66667 3 5.66667C4.47276 5.66667 5.66667 4.47276 5.66667 3C5.66667 1.52724 4.47276 0.333333 3 0.333333ZM3.00001 236.333C1.52725 236.333 0.333344 237.527 0.333344 239C0.333344 240.473 1.52725 241.667 3.00001 241.667C4.47277 241.667 5.66668 240.473 5.66668 239C5.66668 237.527 4.47277 236.333 3.00001 236.333ZM2.5 3L2.5 5.45833L3.5 5.45833L3.5 3L2.5 3ZM2.5 15.2917L2.5 20.2083L3.5 20.2083L3.5 15.2917L2.5 15.2917ZM2.5 30.0417L2.5 34.9583L3.5 34.9583L3.5 30.0417L2.5 30.0417ZM2.5 44.7917L2.5 49.7083L3.5 49.7083L3.5 44.7917L2.5 44.7917ZM2.5 59.5417L2.5 64.4583L3.5 64.4583L3.5 59.5417L2.5 59.5417ZM2.5 74.2917L2.5 79.2083L3.5 79.2083L3.5 74.2917L2.5 74.2917ZM2.5 89.0417L2.5 93.9583L3.5 93.9583L3.5 89.0417L2.5 89.0417ZM2.5 103.792L2.5 108.708L3.5 108.708L3.5 103.792L2.5 103.792ZM2.50001 118.542L2.50001 123.458L3.50001 123.458L3.50001 118.542L2.50001 118.542ZM2.50001 133.292L2.50001 138.208L3.50001 138.208L3.50001 133.292L2.50001 133.292ZM2.50001 148.042L2.50001 152.958L3.50001 152.958L3.50001 148.042L2.50001 148.042ZM2.50001 162.792L2.50001 167.708L3.50001 167.708L3.50001 162.792L2.50001 162.792ZM2.50001 177.542L2.50001 182.458L3.50001 182.458L3.50001 177.542L2.50001 177.542ZM2.50001 192.292L2.50001 197.208L3.50001 197.208L3.50001 192.292L2.50001 192.292ZM2.50001 207.042L2.50001 211.958L3.50001 211.958L3.50001 207.042L2.50001 207.042ZM2.50001 221.792L2.50001 226.708L3.50001 226.708L3.50001 221.792L2.50001 221.792ZM2.50001 236.542L2.50001 239L3.50001 239L3.50001 236.542L2.50001 236.542Z" fill="#14504E"/>
</svg>
