<svg width="22" height="21" viewBox="0 0 22 21" fill="none" xmlns="http://www.w3.org/2000/svg">
<path d="M10.6633 2.89282L14.3373 6.57108L14.3245 6.58388L11.3802 9.5282L11.3674 9.541L7.69336 5.86701L7.70616 5.8542L10.6505 2.90562L10.6633 2.89282Z" fill="#B1B3B9"/>
<path d="M10.4071 0.861718C10.6545 1.10921 10.7783 1.43778 10.7783 1.76208C10.7783 2.09065 10.6545 2.41495 10.4071 2.66244L7.46274 5.60676C7.21524 5.85425 6.88668 5.978 6.56237 5.978C6.23381 5.978 5.9095 5.85425 5.66201 5.60676C5.41452 5.35926 5.29077 5.0307 5.29077 4.70639C5.29077 4.37783 5.41452 4.05353 5.66201 3.80603L8.60633 0.861718C8.85382 0.614225 9.18239 0.490479 9.50669 0.490479C9.83526 0.490479 10.1596 0.614225 10.4071 0.861718Z" fill="#B1B3B9"/>
<path d="M16.3687 6.82339C16.6162 7.07088 16.74 7.39945 16.74 7.72375C16.74 8.05232 16.6162 8.37662 16.3687 8.62411L13.4244 11.5684C13.1769 11.8159 12.8483 11.9397 12.524 11.9397C12.1955 11.9397 11.8712 11.8159 11.6237 11.5684C11.3762 11.3209 11.2524 10.9924 11.2524 10.6681C11.2524 10.3395 11.3762 10.0152 11.6237 9.7677L14.568 6.82339C14.8155 6.57589 15.1441 6.45215 15.4684 6.45215C15.7969 6.45215 16.1212 6.57589 16.3687 6.82339Z" fill="#B1B3B9"/>
<path d="M10.16 8.81581L2.46213 16.9746C2.45786 16.9788 2.4536 16.9831 2.44506 16.9916C2.27864 17.158 2.06102 17.2391 1.83913 17.2348C1.62151 17.2348 1.40388 17.1538 1.2332 16.9959C1.21186 16.9746 1.22466 16.9874 1.21613 16.9788L0.256027 16.0187L0.238959 16.0016C0.0810753 15.8352 0 15.6133 0 15.3957C0 15.1738 0.0810753 14.9562 0.243226 14.7898L0.260294 14.7727L8.41903 7.07483L10.16 8.81581Z" fill="#B1B3B9"/>
<path d="M11.1753 18.1179H21.1049C21.3098 18.1179 21.4932 18.2033 21.6298 18.3355C21.7663 18.4721 21.8474 18.6556 21.8474 18.8604V19.748C21.8474 19.9528 21.7621 20.1363 21.6298 20.2728C21.4932 20.4094 21.3098 20.4904 21.1049 20.4904H11.1753C10.9705 20.4904 10.787 20.4051 10.6505 20.2728C10.5139 20.1363 10.4329 19.9528 10.4329 19.748V18.8604C10.4329 18.6556 10.5182 18.4721 10.6505 18.3355C10.787 18.199 10.9705 18.1179 11.1753 18.1179Z" fill="#B1B3B9"/>
<path d="M12.6395 16.0871H19.6375C19.8424 16.0871 20.0258 16.1724 20.1624 16.3047C20.2989 16.4413 20.38 16.6248 20.38 16.8296V17.7171C20.38 17.7385 20.38 17.7555 20.3757 17.7769H11.9012C11.9012 17.7555 11.897 17.7385 11.897 17.7171V16.8296C11.897 16.6248 11.9823 16.4413 12.1146 16.3047C12.2511 16.1682 12.4346 16.0871 12.6395 16.0871Z" fill="#B1B3B9"/>
</svg>
