<svg width="20" height="23" viewBox="0 0 20 23" fill="none" xmlns="http://www.w3.org/2000/svg">
<path d="M9.59993 10.9258C12.4068 10.9258 14.6823 8.65037 14.6823 5.84346C14.6823 3.03656 12.4068 0.761108 9.59993 0.761108C6.79303 0.761108 4.51758 3.03656 4.51758 5.84346C4.51758 8.65037 6.79303 10.9258 9.59993 10.9258Z" fill="#B1B3B9"/>
<path fill-rule="evenodd" clip-rule="evenodd" d="M19.2 19.3964V20.5258C19.2 21.4615 18.4416 22.2199 17.5059 22.2199H1.69412C0.7584 22.2199 0 21.4615 0 20.5258C0 20.174 0 19.794 0 19.3964C0 15.3418 3.28659 12.0552 7.34118 12.0552C8.82466 12.0552 10.3753 12.0552 11.8588 12.0552C15.9134 12.0552 19.2 15.3418 19.2 19.3964Z" fill="#B1B3B9"/>
</svg>
