<svg width="26" height="16" viewBox="0 0 26 16" fill="none" xmlns="http://www.w3.org/2000/svg">
<path d="M1 6.99982C0.447715 6.99982 4.82823e-08 7.44753 0 7.99982C-4.82823e-08 8.5521 0.447715 8.99982 1 8.99982L1 6.99982ZM25.7071 8.70693C26.0976 8.3164 26.0976 7.68324 25.7071 7.29271L19.3431 0.928751C18.9526 0.538226 18.3195 0.538226 17.9289 0.928751C17.5384 1.31927 17.5384 1.95244 17.9289 2.34296L23.5858 7.99982L17.9289 13.6567C17.5384 14.0472 17.5384 14.6804 17.9289 15.0709C18.3195 15.4614 18.9526 15.4614 19.3431 15.0709L25.7071 8.70693ZM1 8.99982L25 8.99982L25 6.99982L1 6.99982L1 8.99982Z" fill="#28DFD9"/>
</svg>
