<svg width="22" height="23" viewBox="0 0 22 23" fill="none" xmlns="http://www.w3.org/2000/svg">
<path fill-rule="evenodd" clip-rule="evenodd" d="M22 11.4904C22 17.3314 17.2649 22.0665 11.4238 22.0665C5.58277 22.0665 0.847656 17.3314 0.847656 11.4904C0.847656 5.6493 5.58277 0.914185 11.4238 0.914185C17.2649 0.914185 22 5.6493 22 11.4904ZM11.4238 6.20227C10.3287 6.20227 9.4408 7.0901 9.4408 8.1853C9.4408 8.55037 9.1448 8.84631 8.77979 8.84631C8.41472 8.84631 8.11877 8.55037 8.11877 8.1853C8.11877 6.35997 9.59851 4.88025 11.4238 4.88025C13.2491 4.88025 14.7289 6.35997 14.7289 8.1853C14.7289 9.43726 14.0324 10.5257 13.0091 11.086C12.7338 11.2367 12.4885 11.4195 12.3194 11.6167C12.1531 11.8107 12.0848 11.9874 12.0848 12.1514V14.1344C12.0848 14.4994 11.7888 14.7954 11.4238 14.7954C11.0588 14.7954 10.7628 14.4994 10.7628 14.1344V12.1514C10.7628 11.5851 11.0083 11.1146 11.3158 10.7561C11.6204 10.401 12.009 10.1263 12.3742 9.92627C12.991 9.58863 13.4069 8.93502 13.4069 8.1853C13.4069 7.0901 12.519 6.20227 11.4238 6.20227ZM12.0848 17.4395C12.0848 17.8045 11.7888 18.1005 11.4238 18.1005C11.0588 18.1005 10.7628 17.8045 10.7628 17.4395C10.7628 17.0744 11.0588 16.7784 11.4238 16.7784C11.7888 16.7784 12.0848 17.0744 12.0848 17.4395Z" fill="white"/>
</svg>
