<svg width="226" height="7" viewBox="0 0 226 7" fill="none" xmlns="http://www.w3.org/2000/svg">
<path d="M1 2.99982C0.723858 2.99982 0.5 3.22367 0.5 3.49982C0.5 3.77596 0.723858 3.99982 1 3.99982V2.99982ZM220.333 3.49982C220.333 4.97258 221.527 6.16648 223 6.16648C224.473 6.16648 225.667 4.97258 225.667 3.49982C225.667 2.02706 224.473 0.83315 223 0.83315C221.527 0.83315 220.333 2.02706 220.333 3.49982ZM3.46667 3.99982C3.74281 3.99982 3.96667 3.77596 3.96667 3.49982C3.96667 3.22367 3.74281 2.99982 3.46667 2.99982V3.99982ZM13.3333 2.99982C13.0572 2.99982 12.8333 3.22367 12.8333 3.49982C12.8333 3.77596 13.0572 3.99982 13.3333 3.99982V2.99982ZM18.2667 3.99982C18.5428 3.99982 18.7667 3.77596 18.7667 3.49982C18.7667 3.22367 18.5428 2.99982 18.2667 2.99982V3.99982ZM28.1333 2.99982C27.8572 2.99982 27.6333 3.22367 27.6333 3.49982C27.6333 3.77596 27.8572 3.99982 28.1333 3.99982V2.99982ZM33.0667 3.99982C33.3428 3.99982 33.5667 3.77596 33.5667 3.49982C33.5667 3.22367 33.3428 2.99982 33.0667 2.99982V3.99982ZM42.9333 2.99982C42.6572 2.99982 42.4333 3.22367 42.4333 3.49982C42.4333 3.77596 42.6572 3.99982 42.9333 3.99982V2.99982ZM47.8667 3.99982C48.1428 3.99982 48.3667 3.77596 48.3667 3.49982C48.3667 3.22367 48.1428 2.99982 47.8667 2.99982V3.99982ZM57.7333 2.99982C57.4572 2.99982 57.2333 3.22367 57.2333 3.49982C57.2333 3.77596 57.4572 3.99982 57.7333 3.99982V2.99982ZM62.6667 3.99982C62.9428 3.99982 63.1667 3.77596 63.1667 3.49982C63.1667 3.22367 62.9428 2.99982 62.6667 2.99982V3.99982ZM72.5333 2.99982C72.2572 2.99982 72.0333 3.22367 72.0333 3.49982C72.0333 3.77596 72.2572 3.99982 72.5333 3.99982V2.99982ZM77.4667 3.99982C77.7428 3.99982 77.9667 3.77596 77.9667 3.49982C77.9667 3.22367 77.7428 2.99982 77.4667 2.99982V3.99982ZM87.3333 2.99982C87.0572 2.99982 86.8333 3.22367 86.8333 3.49982C86.8333 3.77596 87.0572 3.99982 87.3333 3.99982V2.99982ZM92.2667 3.99982C92.5428 3.99982 92.7667 3.77596 92.7667 3.49982C92.7667 3.22367 92.5428 2.99982 92.2667 2.99982V3.99982ZM102.133 2.99982C101.857 2.99982 101.633 3.22367 101.633 3.49982C101.633 3.77596 101.857 3.99982 102.133 3.99982V2.99982ZM107.067 3.99982C107.343 3.99982 107.567 3.77596 107.567 3.49982C107.567 3.22367 107.343 2.99982 107.067 2.99982V3.99982ZM116.933 2.99982C116.657 2.99982 116.433 3.22367 116.433 3.49982C116.433 3.77596 116.657 3.99982 116.933 3.99982V2.99982ZM121.867 3.99982C122.143 3.99982 122.367 3.77596 122.367 3.49982C122.367 3.22367 122.143 2.99982 121.867 2.99982V3.99982ZM131.733 2.99982C131.457 2.99982 131.233 3.22367 131.233 3.49982C131.233 3.77596 131.457 3.99982 131.733 3.99982V2.99982ZM136.667 3.99982C136.943 3.99982 137.167 3.77596 137.167 3.49982C137.167 3.22367 136.943 2.99982 136.667 2.99982V3.99982ZM146.533 2.99982C146.257 2.99982 146.033 3.22367 146.033 3.49982C146.033 3.77596 146.257 3.99982 146.533 3.99982V2.99982ZM151.467 3.99982C151.743 3.99982 151.967 3.77596 151.967 3.49982C151.967 3.22367 151.743 2.99982 151.467 2.99982V3.99982ZM161.333 2.99982C161.057 2.99982 160.833 3.22367 160.833 3.49982C160.833 3.77596 161.057 3.99982 161.333 3.99982V2.99982ZM166.267 3.99982C166.543 3.99982 166.767 3.77596 166.767 3.49982C166.767 3.22367 166.543 2.99982 166.267 2.99982V3.99982ZM176.133 2.99982C175.857 2.99982 175.633 3.22367 175.633 3.49982C175.633 3.77596 175.857 3.99982 176.133 3.99982V2.99982ZM181.067 3.99982C181.343 3.99982 181.567 3.77596 181.567 3.49982C181.567 3.22367 181.343 2.99982 181.067 2.99982V3.99982ZM190.933 2.99982C190.657 2.99982 190.433 3.22367 190.433 3.49982C190.433 3.77596 190.657 3.99982 190.933 3.99982V2.99982ZM195.867 3.99982C196.143 3.99982 196.367 3.77596 196.367 3.49982C196.367 3.22367 196.143 2.99982 195.867 2.99982V3.99982ZM205.733 2.99982C205.457 2.99982 205.233 3.22367 205.233 3.49982C205.233 3.77596 205.457 3.99982 205.733 3.99982V2.99982ZM210.667 3.99982C210.943 3.99982 211.167 3.77596 211.167 3.49982C211.167 3.22367 210.943 2.99982 210.667 2.99982V3.99982ZM220.533 2.99982C220.257 2.99982 220.033 3.22367 220.033 3.49982C220.033 3.77596 220.257 3.99982 220.533 3.99982V2.99982ZM1 3.99982H3.46667V2.99982H1V3.99982ZM13.3333 3.99982H18.2667V2.99982H13.3333V3.99982ZM28.1333 3.99982H33.0667V2.99982H28.1333V3.99982ZM42.9333 3.99982H47.8667V2.99982H42.9333V3.99982ZM57.7333 3.99982H62.6667V2.99982H57.7333V3.99982ZM72.5333 3.99982H77.4667V2.99982H72.5333V3.99982ZM87.3333 3.99982H92.2667V2.99982H87.3333V3.99982ZM102.133 3.99982H107.067V2.99982H102.133V3.99982ZM116.933 3.99982H121.867V2.99982H116.933V3.99982ZM131.733 3.99982H136.667V2.99982H131.733V3.99982ZM146.533 3.99982H151.467V2.99982H146.533V3.99982ZM161.333 3.99982H166.267V2.99982H161.333V3.99982ZM176.133 3.99982H181.067V2.99982H176.133V3.99982ZM190.933 3.99982H195.867V2.99982H190.933V3.99982ZM205.733 3.99982H210.667V2.99982H205.733V3.99982ZM220.533 3.99982H223V2.99982H220.533V3.99982Z" fill="#28DFD9"/>
</svg>
