<svg width="225" height="7" viewBox="0 0 225 7" fill="none" xmlns="http://www.w3.org/2000/svg">
<path d="M224 2.99982C224.276 2.99982 224.5 3.22367 224.5 3.49982C224.5 3.77596 224.276 3.99982 224 3.99982V2.99982ZM5.66666 3.49982C5.66666 4.97258 4.47275 6.16648 3 6.16648C1.52724 6.16648 0.333328 4.97258 0.333328 3.49982C0.333328 2.02706 1.52724 0.83315 3 0.83315C4.47275 0.83315 5.66666 2.02706 5.66666 3.49982ZM221.544 3.99982C221.268 3.99982 221.044 3.77596 221.044 3.49982C221.044 3.22367 221.268 2.99982 221.544 2.99982V3.99982ZM211.722 2.99982C211.998 2.99982 212.222 3.22367 212.222 3.49982C212.222 3.77596 211.998 3.99982 211.722 3.99982V2.99982ZM206.811 3.99982C206.535 3.99982 206.311 3.77596 206.311 3.49982C206.311 3.22367 206.535 2.99982 206.811 2.99982V3.99982ZM196.989 2.99982C197.265 2.99982 197.489 3.22367 197.489 3.49982C197.489 3.77596 197.265 3.99982 196.989 3.99982V2.99982ZM192.078 3.99982C191.802 3.99982 191.578 3.77596 191.578 3.49982C191.578 3.22367 191.802 2.99982 192.078 2.99982V3.99982ZM182.256 2.99982C182.532 2.99982 182.756 3.22367 182.756 3.49982C182.756 3.77596 182.532 3.99982 182.256 3.99982V2.99982ZM177.344 3.99982C177.068 3.99982 176.844 3.77596 176.844 3.49982C176.844 3.22367 177.068 2.99982 177.344 2.99982V3.99982ZM167.522 2.99982C167.798 2.99982 168.022 3.22367 168.022 3.49982C168.022 3.77596 167.798 3.99982 167.522 3.99982V2.99982ZM162.611 3.99982C162.335 3.99982 162.111 3.77596 162.111 3.49982C162.111 3.22367 162.335 2.99982 162.611 2.99982V3.99982ZM152.789 2.99982C153.065 2.99982 153.289 3.22367 153.289 3.49982C153.289 3.77596 153.065 3.99982 152.789 3.99982V2.99982ZM147.878 3.99982C147.602 3.99982 147.378 3.77596 147.378 3.49982C147.378 3.22367 147.602 2.99982 147.878 2.99982V3.99982ZM138.056 2.99982C138.332 2.99982 138.556 3.22367 138.556 3.49982C138.556 3.77596 138.332 3.99982 138.056 3.99982V2.99982ZM133.144 3.99982C132.868 3.99982 132.644 3.77596 132.644 3.49982C132.644 3.22367 132.868 2.99982 133.144 2.99982V3.99982ZM123.322 2.99982C123.598 2.99982 123.822 3.22367 123.822 3.49982C123.822 3.77596 123.598 3.99982 123.322 3.99982V2.99982ZM118.411 3.99982C118.135 3.99982 117.911 3.77596 117.911 3.49982C117.911 3.22367 118.135 2.99982 118.411 2.99982V3.99982ZM108.589 2.99982C108.865 2.99982 109.089 3.22367 109.089 3.49982C109.089 3.77596 108.865 3.99982 108.589 3.99982V2.99982ZM103.678 3.99982C103.402 3.99982 103.178 3.77596 103.178 3.49982C103.178 3.22367 103.402 2.99982 103.678 2.99982V3.99982ZM93.8556 2.99982C94.1317 2.99982 94.3556 3.22367 94.3556 3.49982C94.3556 3.77596 94.1317 3.99982 93.8556 3.99982V2.99982ZM88.9445 3.99982C88.6683 3.99982 88.4445 3.77596 88.4445 3.49982C88.4445 3.22367 88.6683 2.99982 88.9445 2.99982V3.99982ZM79.1222 2.99982C79.3984 2.99982 79.6222 3.22367 79.6222 3.49982C79.6222 3.77596 79.3984 3.99982 79.1222 3.99982V2.99982ZM74.2111 3.99982C73.935 3.99982 73.7111 3.77596 73.7111 3.49982C73.7111 3.22367 73.935 2.99982 74.2111 2.99982V3.99982ZM64.3889 2.99982C64.665 2.99982 64.8889 3.22367 64.8889 3.49982C64.8889 3.77596 64.665 3.99982 64.3889 3.99982V2.99982ZM59.4778 3.99982C59.2016 3.99982 58.9778 3.77596 58.9778 3.49982C58.9778 3.22367 59.2016 2.99982 59.4778 2.99982V3.99982ZM49.6555 2.99982C49.9317 2.99982 50.1555 3.22367 50.1555 3.49982C50.1555 3.77596 49.9317 3.99982 49.6555 3.99982V2.99982ZM44.7444 3.99982C44.4683 3.99982 44.2444 3.77596 44.2444 3.49982C44.2444 3.22367 44.4683 2.99982 44.7444 2.99982V3.99982ZM34.9222 2.99982C35.1984 2.99982 35.4222 3.22367 35.4222 3.49982C35.4222 3.77596 35.1984 3.99982 34.9222 3.99982V2.99982ZM30.0111 3.99982C29.735 3.99982 29.5111 3.77596 29.5111 3.49982C29.5111 3.22367 29.735 2.99982 30.0111 2.99982V3.99982ZM20.1889 2.99982C20.465 2.99982 20.6889 3.22367 20.6889 3.49982C20.6889 3.77596 20.465 3.99982 20.1889 3.99982V2.99982ZM15.2778 3.99982C15.0016 3.99982 14.7778 3.77596 14.7778 3.49982C14.7778 3.22367 15.0016 2.99982 15.2778 2.99982V3.99982ZM5.45554 2.99982C5.73169 2.99982 5.95554 3.22367 5.95554 3.49982C5.95554 3.77596 5.73169 3.99982 5.45554 3.99982V2.99982ZM224 3.99982H221.544V2.99982H224V3.99982ZM211.722 3.99982H206.811V2.99982H211.722V3.99982ZM196.989 3.99982H192.078V2.99982H196.989V3.99982ZM182.256 3.99982H177.344V2.99982H182.256V3.99982ZM167.522 3.99982H162.611V2.99982H167.522V3.99982ZM152.789 3.99982H147.878V2.99982H152.789V3.99982ZM138.056 3.99982H133.144V2.99982H138.056V3.99982ZM123.322 3.99982H118.411V2.99982H123.322V3.99982ZM108.589 3.99982H103.678V2.99982H108.589V3.99982ZM93.8556 3.99982H88.9445V2.99982H93.8556V3.99982ZM79.1222 3.99982H74.2111V2.99982H79.1222V3.99982ZM64.3889 3.99982H59.4778V2.99982H64.3889V3.99982ZM49.6555 3.99982H44.7444V2.99982H49.6555V3.99982ZM34.9222 3.99982H30.0111V2.99982H34.9222V3.99982ZM20.1889 3.99982H15.2778V2.99982H20.1889V3.99982ZM5.45554 3.99982H3V2.99982H5.45554V3.99982Z" fill="#28DFD9"/>
</svg>
