<svg width="20" height="20" viewBox="0 0 20 20" fill="none" xmlns="http://www.w3.org/2000/svg">
<g opacity="0.7" clip-path="url(#clip0_126_221)">
<path d="M10.1702 0C9.58334 0 9.10762 0.483986 9.10762 1.08097V8.91903H1.40291C0.816055 8.91903 0.340332 9.40302 0.340332 10C0.340332 10.597 0.816084 11.081 1.40291 11.081H9.10762V18.919C9.10762 19.516 9.58337 20 10.1702 20C10.757 20 11.2328 19.516 11.2328 18.919V11.081H18.9375C19.5243 11.081 20.0001 10.597 20.0001 10C20.0001 9.40299 19.5243 8.91903 18.9375 8.91903H11.2328V1.08097C11.2328 0.483957 10.757 0 10.1702 0Z" fill="#B1B3B9"/>
</g>
<defs>
<clipPath id="clip0_126_221">
<rect width="19.6597" height="20" fill="white" transform="translate(0.340332)"/>
</clipPath>
</defs>
</svg>
