<svg width="8" height="68" viewBox="0 0 8 68" fill="none" xmlns="http://www.w3.org/2000/svg">
<path opacity="0.5" d="M4 0C1.79086 -9.65645e-08 9.65645e-08 1.79086 0 4C-9.65645e-08 6.20914 1.79086 8 4 8C6.20914 8 8 6.20914 8 4C8 1.79086 6.20914 9.65645e-08 4 0ZM4 60C1.79086 60 -2.52612e-06 61.7909 -2.62268e-06 64C-2.71925e-06 66.2091 1.79086 68 4 68C6.20914 68 8 66.2091 8 64C8 61.7909 6.20914 60 4 60ZM3.25 5.5C3.25 5.91421 3.58579 6.25 4 6.25C4.41421 6.25 4.75 5.91421 4.75 5.5L3.25 5.5ZM4.75 8.5C4.75 8.08579 4.41421 7.75 4 7.75C3.58579 7.75 3.25 8.08579 3.25 8.5L4.75 8.5ZM3.25 11.5C3.25 11.9142 3.58579 12.25 4 12.25C4.41421 12.25 4.75 11.9142 4.75 11.5L3.25 11.5ZM4.75 14.5C4.75 14.0858 4.41421 13.75 4 13.75C3.58579 13.75 3.25 14.0858 3.25 14.5L4.75 14.5ZM3.25 17.5C3.25 17.9142 3.58579 18.25 4 18.25C4.41421 18.25 4.75 17.9142 4.75 17.5L3.25 17.5ZM4.75 20.5C4.75 20.0858 4.41421 19.75 4 19.75C3.58579 19.75 3.25 20.0858 3.25 20.5L4.75 20.5ZM3.25 23.5C3.25 23.9142 3.58579 24.25 4 24.25C4.41421 24.25 4.75 23.9142 4.75 23.5L3.25 23.5ZM4.75 26.5C4.75 26.0858 4.41421 25.75 4 25.75C3.58579 25.75 3.25 26.0858 3.25 26.5L4.75 26.5ZM3.25 29.5C3.25 29.9142 3.58579 30.25 4 30.25C4.41421 30.25 4.75 29.9142 4.75 29.5L3.25 29.5ZM4.75 32.5C4.75 32.0858 4.41421 31.75 4 31.75C3.58579 31.75 3.25 32.0858 3.25 32.5L4.75 32.5ZM3.25 35.5C3.25 35.9142 3.58579 36.25 4 36.25C4.41421 36.25 4.75 35.9142 4.75 35.5L3.25 35.5ZM4.75 38.5C4.75 38.0858 4.41421 37.75 4 37.75C3.58578 37.75 3.25 38.0858 3.25 38.5L4.75 38.5ZM3.25 41.5C3.25 41.9142 3.58578 42.25 4 42.25C4.41421 42.25 4.75 41.9142 4.75 41.5L3.25 41.5ZM4.75 44.5C4.75 44.0858 4.41421 43.75 4 43.75C3.58578 43.75 3.25 44.0858 3.25 44.5L4.75 44.5ZM3.25 47.5C3.25 47.9142 3.58578 48.25 4 48.25C4.41421 48.25 4.75 47.9142 4.75 47.5L3.25 47.5ZM4.75 50.5C4.75 50.0858 4.41421 49.75 4 49.75C3.58578 49.75 3.25 50.0858 3.25 50.5L4.75 50.5ZM3.25 53.5C3.25 53.9142 3.58578 54.25 4 54.25C4.41421 54.25 4.75 53.9142 4.75 53.5L3.25 53.5ZM4.75 56.5C4.75 56.0858 4.41421 55.75 4 55.75C3.58578 55.75 3.25 56.0858 3.25 56.5L4.75 56.5ZM3.25 59.5C3.25 59.9142 3.58578 60.25 4 60.25C4.41421 60.25 4.75 59.9142 4.75 59.5L3.25 59.5ZM4.75 62.5C4.75 62.0858 4.41421 61.75 4 61.75C3.58578 61.75 3.25 62.0858 3.25 62.5L4.75 62.5ZM3.25 4L3.25 5.5L4.75 5.5L4.75 4L3.25 4ZM3.25 8.5L3.25 11.5L4.75 11.5L4.75 8.5L3.25 8.5ZM3.25 14.5L3.25 17.5L4.75 17.5L4.75 14.5L3.25 14.5ZM3.25 20.5L3.25 23.5L4.75 23.5L4.75 20.5L3.25 20.5ZM3.25 26.5L3.25 29.5L4.75 29.5L4.75 26.5L3.25 26.5ZM3.25 32.5L3.25 35.5L4.75 35.5L4.75 32.5L3.25 32.5ZM3.25 38.5L3.25 41.5L4.75 41.5L4.75 38.5L3.25 38.5ZM3.25 44.5L3.25 47.5L4.75 47.5L4.75 44.5L3.25 44.5ZM3.25 50.5L3.25 53.5L4.75 53.5L4.75 50.5L3.25 50.5ZM3.25 56.5L3.25 59.5L4.75 59.5L4.75 56.5L3.25 56.5ZM3.25 62.5L3.25 64L4.75 64L4.75 62.5L3.25 62.5Z" fill="#28DFD9"/>
</svg>
